<svg width="1024.000000" height="1024.000000" viewBox="0 0 1024 1024" fill="none" xmlns="http://www.w3.org/2000/svg" xmlns:xlink="http://www.w3.org/1999/xlink">
    <defs>
        <filter id="filter_4_21_dd" x="48.756439" y="-20.778351" width="782.743530" height="1069.902466" filterUnits="userSpaceOnUse" color-interpolation-filters="sRGB">
            <feFlood flood-opacity="0" result="BackgroundImageFix"/>
            <feColorMatrix in="SourceAlpha" type="matrix" values="0 0 0 0 0 0 0 0 0 0 0 0 0 0 0 0 0 0 127 0" result="hardAlpha"/>
            <feOffset dx="0" dy="4"/>
            <feGaussianBlur stdDeviation="1.33333"/>
            <feComposite in2="hardAlpha" operator="out" k2="-1" k3="1"/>
            <feColorMatrix type="matrix" values="0 0 0 0 0 0 0 0 0 0 0 0 0 0 0 0 0 0 0.25 0"/>
            <feBlend mode="normal" in2="BackgroundImageFix" result="effect_dropShadow_1"/>
            <feBlend mode="normal" in="SourceGraphic" in2="effect_dropShadow_1" result="shape"/>
            <feGaussianBlur stdDeviation="0.666667" result="effect_layerBlur_2"/>
        </filter>
    </defs>
    <g clip-path="url(#clip2_1)">
        <g filter="url(#filter_4_21_dd)">
            <path id="C1" d="M510.5 0L510.5 388.5L510.5 479.47L510.5 845.5L510.5 878.5L510.5 1023.5" stroke="#FDB32E" stroke-opacity="1.000000" stroke-width="22.000000"/>
            <path id="C2" d="
              M510.5 828.5
              C510.5 878.5 530 932.5 535.5 945.83
              C535.5 945.83 548.4 975 556 985
              C563.59 998 585.66 1024.82 594 1033.5
            " stroke="#FDB32E" stroke-opacity="1.000000" stroke-width="22.000000"/>
            <path id="C3" d="M510.5 479.47C505 461.64 489.5 419.7 471.5 394.5C453.5 369.3 419.33 334 404.5 319.5L236.5 159.5L72 0L60 -10.5" stroke="#FDB32E" stroke-opacity="1.000000" stroke-width="22.000000"/>
            <path id="C4" d="
            M510.5 479.47
            C537 403.5 570 350 609.5 314
            C656.5 271 690 245 732.5 204
            C760.5 178 780 153 797 117
            C808.5 92.16 813.5 72.9 813.5 0
            " stroke="#FDB32E" stroke-opacity="1.000000" stroke-width="22.000000"/>
        </g>
        <circle id="RT" cx="803.000000" cy="101.000000" r="7.500000" fill="#000000" fill-opacity="1.000000"/>
        <circle id="MT" cx="510.000000" cy="101.000000" r="7.500000" fill="#000000" fill-opacity="1.000000"/>
        <circle id="M" cx="510.000000" cy="512.000000" r="25.000000" fill="#FFB22E" fill-opacity="1.000000"/>

        <circle id="MB" cx="510.000000" cy="512.000000" r="16.000000" fill="#151314" fill-opacity="1.000000"/>

        <text x="510.4" y="559" font-family="Arial" font-size="19px" font-weight="700" fill="black" text-anchor="middle" dominant-baseline="middle">
            M
        </text>
    </g>
</svg>
